<svg width="15" height="15" viewBox="0 0 15 15" fill="none" xmlns="http://www.w3.org/2000/svg">
  <path
    fill-rule="evenodd"
    clip-rule="evenodd"
    d="M12.8536 13.8536C12.6583 14.0488 12.3417 14.0488 12.1465 13.8536L6.39645 8.10355C6.36478 8.07188 6.33825 8.03702 6.31685 8H5.00002C4.78719 8 4.59769 7.86528 4.52777 7.66426L2.12777 0.764277C2.05268 0.548387 2.13355 0.309061 2.3242 0.182972C2.51486 0.0568819 2.76674 0.0761337 2.93602 0.229734L8.336 5.12972C8.44044 5.22449 8.50001 5.35897 8.50001 5.5V5.81684C8.53702 5.83824 8.57189 5.86478 8.60356 5.89645L14.3536 11.6464C14.5488 11.8417 14.5488 12.1583 14.3536 12.3536L12.8536 13.8536ZM8.25 6.95711L7.45711 7.75L12.5 12.7929L13.2929 12L8.25 6.95711ZM3.71669 2.28845L5.35549 7H6.2929L7.50001 5.79289V5.72146L3.71669 2.28845Z"
    fill="currentColor"
  />
</svg>
